<?xml version="1.0" encoding="UTF-8" standalone="no"?>
<!DOCTYPE svg PUBLIC "-//W3C//DTD SVG 1.1//EN" "http://www.w3.org/Graphics/SVG/1.1/DTD/svg11.dtd">
<svg width="100%" height="100%" viewBox="0 0 493 72" version="1.1" xmlns="http://www.w3.org/2000/svg" xmlns:xlink="http://www.w3.org/1999/xlink" xml:space="preserve" xmlns:serif="http://www.serif.com/" style="fill-rule:evenodd;clip-rule:evenodd;stroke-linejoin:round;stroke-miterlimit:2;">
    <g id="Layer-1" serif:id="Layer 1">
        <g>
            <path d="M0,6.561L17.147,6.561L17.147,41.47L30.708,22.221L51.269,22.221L31.933,46.893L51.619,71.303L30.708,71.303L17.147,51.18L17.147,71.303L0,71.303L0,6.561Z" style="fill:rgb(255,83,0);fill-rule:nonzero;"/>
        </g>
        <g>
            <path d="M75.845,36.57C70.946,36.57 66.921,40.069 66.921,46.719C66.921,53.28 70.947,56.954 75.845,56.954C80.656,56.954 84.767,53.368 84.767,46.719C84.767,40.156 80.656,36.57 75.845,36.57M70.334,21.61C77.332,21.61 82.231,24.672 84.767,29.047L84.767,22.222L101.916,22.222L101.916,71.304L84.767,71.304L84.767,64.479C82.23,68.855 77.244,71.916 70.334,71.916C58.698,71.916 49.423,62.379 49.423,46.719C49.423,31.059 58.697,21.61 70.334,21.61" style="fill:rgb(255,83,0);fill-rule:nonzero;"/>
        </g>
        <g>
            <path d="M107.331,6.561L124.479,6.561L124.479,29.221C127.368,25.022 132.529,21.784 139.614,21.784C150.813,21.784 157.9,29.834 157.9,42.695L157.9,71.303L140.753,71.303L140.753,44.969C140.753,39.281 137.602,35.957 132.703,35.957C127.627,35.957 124.478,39.281 124.478,44.969L124.478,71.303L107.331,71.303L107.331,6.561Z" style="fill:rgb(255,83,0);fill-rule:nonzero;"/>
        </g>
        <g>
            <path d="M177.227,41.907L192.362,41.907C192.362,37.533 188.95,35.169 185.014,35.169C180.903,35.169 178.014,37.445 177.227,41.907M185.102,71.915C170.579,71.915 160.168,62.378 160.168,46.718C160.168,31.145 170.405,21.611 185.102,21.611C199.625,21.611 209.862,30.971 209.862,46.194C209.862,47.506 209.775,48.908 209.6,50.22L177.141,50.22C177.491,55.906 180.553,58.18 184.403,58.18C187.727,58.18 189.564,56.343 190.526,54.331L208.812,54.331C206.536,64.393 197.351,71.916 185.102,71.916" style="fill:rgb(255,83,0);fill-rule:nonzero;"/>
        </g>
        <g>
            <rect x="212.478" y="6.561" width="17.149" height="64.742" style="fill:rgb(255,83,0);"/>
        </g>
        <g>
            <path d="M253.968,71.915C240.32,71.915 231.22,64.565 230.521,54.768L247.143,54.768C247.582,58.005 250.294,59.754 253.881,59.754C256.768,59.754 258.43,58.354 258.43,56.605C258.43,49.43 232.358,55.293 232.358,37.269C232.358,28.696 239.445,21.609 252.744,21.609C266.13,21.609 273.128,29.046 274.265,38.756L258.78,38.756C258.255,35.694 256.068,33.857 252.394,33.857C249.595,33.857 248.108,34.994 248.108,36.833C248.108,43.831 274.265,38.233 274.353,56.867C274.353,65.442 266.655,71.915 253.969,71.915" style="fill-rule:nonzero;"/>
        </g>
        <g>
            <path d="M281.083,36.482L275.045,36.482L275.045,22.222L281.083,22.222L281.083,10.323L298.318,10.323L298.318,22.222L307.242,22.222L307.242,36.482L298.318,36.482L298.318,52.929C298.318,55.553 299.455,56.692 302.342,56.692L307.33,56.692L307.33,71.302L299.893,71.302C289.044,71.302 281.084,66.751 281.084,52.666L281.084,36.481L281.083,36.482Z" style="fill-rule:nonzero;"/>
        </g>
        <g>
            <path d="M361.042,71.303L343.807,71.303L343.807,64.303C341.006,68.504 335.845,71.74 328.934,71.74C317.56,71.74 310.473,63.69 310.473,50.744L310.473,22.223L327.535,22.223L327.535,48.555C327.535,54.243 330.772,57.567 335.67,57.567C340.658,57.567 343.807,54.243 343.807,48.555L343.807,22.223L361.042,22.223L361.042,71.303Z" style="fill-rule:nonzero;"/>
        </g>
        <g>
            <path d="M390.08,36.57C385.181,36.57 381.156,40.069 381.156,46.719C381.156,53.28 385.182,56.954 390.08,56.954C394.891,56.954 399.002,53.368 399.002,46.719C399.002,40.156 394.891,36.57 390.08,36.57M384.655,21.61C391.128,21.61 396.204,24.497 398.915,28.958L398.915,6.562L416.15,6.562L416.15,71.304L398.915,71.304L398.915,64.479C396.378,68.855 391.48,71.916 384.569,71.916C372.933,71.916 363.658,62.379 363.658,46.719C363.658,31.059 372.932,21.61 384.654,21.61" style="fill-rule:nonzero;"/>
        </g>
        <g>
            <path d="M421.568,22.223L438.715,22.223L438.715,71.303L421.568,71.303L421.568,22.223ZM420.168,8.925C420.168,3.937 424.104,0.001 430.228,0.001C436.264,0.001 440.202,3.937 440.202,8.925C440.202,13.824 436.264,17.673 430.228,17.673C424.105,17.673 420.168,13.824 420.168,8.925" style="fill-rule:nonzero;"/>
        </g>
        <g>
            <path d="M466.971,57.042C471.345,57.042 475.371,53.805 475.371,46.718C475.371,39.72 471.433,36.481 467.059,36.481C462.683,36.481 458.834,39.72 458.834,46.718C458.834,53.805 462.508,57.042 466.971,57.042M466.971,71.915C452.359,71.915 441.335,62.378 441.335,46.718C441.335,31.145 452.446,21.609 467.059,21.609C481.669,21.609 492.779,31.146 492.779,46.718C492.779,62.378 481.582,71.915 466.972,71.915" style="fill-rule:nonzero;"/>
        </g>
    </g>
</svg>
